<svg width="1619" height="876" viewBox="-10 2453 1619 876" xmlns="http://www.w3.org/2000/svg" xmlns:xlink="http://www.w3.org/1999/xlink"><defs><path id="a" d="M38.192 36.114V.07H.242v36.044z"/><path id="c" d="M48.85 46.058V.09H.31V46.06z"/><path id="e" d="M.09 48.92h41.94V.065H.09z"/></defs><g fill="none" fill-rule="evenodd"><path fill="#F16537" d="M69.673 2706.666l27.286 15.5 26.753-15.55-27.32-15.366"/><path fill="#4459A7" d="M84.673 2690.053l19.563 11.113 19.182-11.15L103.83 2679"/><path fill="#F16537" d="M1170.673 2591.666l27.286 15.5 26.753-15.55-27.32-15.366"/><path fill="#DEDFDE" opacity=".575" d="M1185.673 2575.053l19.563 11.113 19.182-11.15L1204.83 2564"/><path fill="#F16537" d="M926.673 3296.666l27.286 15.5 26.753-15.55-27.32-15.366"/><path fill="#4459A7" d="M941.673 3280.053l19.563 11.113 19.182-11.15L960.83 3269"/><g stroke="#F16537" stroke-width="3"><path d="M-2 2936.625l78.65-45.686M-8 2933.625l78.65-45.686M-4 2944.625l86.293-50.344M-6 2952.625l94.607-55.648"/></g><g stroke="#F16537" stroke-width="3"><path d="M619 3310.625l78.65-45.686M613 3307.625l78.65-45.686M617 3318.625l86.293-50.344M615 3326.625l94.607-55.648"/></g><path fill="#2E368F" d="M1310.842 3066l-44.97 25.84v34.394l44.97-26.333"/><path fill="#F05B29" d="M1281.63 3120.46v14.37l37.95-22.31v-13.732"/><g transform="translate(1292.143 3069.452)"><mask id="b" fill="#fff"><use xlink:href="#a"/></mask><path fill="#DFE0DF" mask="url(#b)" d="M.242 36.114v-14.37L38.192.07v13.735"/></g><path fill="#F05B29" d="M1246 3114.956v-10.996l16.313-9.238v10.508"/><g><path fill="#2E368F" d="M516.938 2453l-57.52 32.954v43.866l57.52-33.584"/><path fill="#F05B29" d="M479.572 2522.457v18.327l48.54-28.452v-17.515"/><g transform="translate(493.02 2457.402)"><mask id="d" fill="#fff"><use xlink:href="#c"/></mask><path fill="#DFE0DF" mask="url(#d)" d="M.31 46.058V27.73L48.85.09v17.516"/></g><path fill="#F05B29" d="M434 2515.436v-14.024l20.865-11.782v13.403"/></g><g><path fill="#F05B29" d="M1315.26 2877.493l41.938 24.43v-24.43l-41.94-24.428"/><path fill="#2E368F" d="M1298.385 2871.56l41.94 24.43 1.03 14.513-41.938-24.427"/><g transform="translate(1283.484 2870.165)"><mask id="f" fill="#fff"><use xlink:href="#e"/></mask><path fill="#DFE0DF" mask="url(#f)" d="M.09.064l41.94 24.43V48.92L.09 24.494"/></g><path fill="#F05B29" d="M1259 2891.926l41.94 24.43v-24.43l-41.94-24.428"/></g><g><path fill="#2E368F" d="M197.698 3207l-31.13 18.227v24.262l31.13-18.576"/><path fill="#F05B29" d="M151 3238.7v24.263l31.132-18.576v-23.913"/></g><g><path fill="#F05B29" d="M1510.478 2701.557l-2.725-1.59v-1.414l2.725 1.59M1502.302 2696.71l-2.725-1.59v-1.415l2.725 1.59M1494.127 2691.86l-2.725-1.588v-1.415l2.725 1.59M1485.952 2687.013l-2.726-1.59v-1.414l2.726 1.59M1477.776 2682.165l-2.725-1.59v-1.414l2.726 1.59M1469.6 2677.6l-2.724-1.588v-1.415l2.725 1.59M1461.425 2672.896l-2.725-1.59v-1.414l2.725 1.59M1453.35 2668.13l-2.725-1.588v-1.415l2.725 1.59M1445.174 2663.283l-2.725-1.59v-1.414l2.724 1.59M1437 2658.435l-2.726-1.59v-1.414l2.725 1.59M1428.823 2653.938l-2.725-1.59v-1.414l2.725 1.59M1420.648 2649.236l-2.725-1.59v-1.414l2.725 1.59M1605.758 2757.633l2.724 1.59v-1.414l-2.724-1.59M1600.308 2754.374l-2.725-1.59v-1.414l2.725 1.59M1592.132 2749.526l-2.725-1.59v-1.414l2.725 1.59M1583.957 2744.678l-2.725-1.59v-1.414l2.725 1.59M1575.78 2739.83l-2.724-1.59v-1.414l2.725 1.59M1567.606 2735.267l-2.725-1.59v-1.414l2.726 1.59M1559.43 2730.56l-2.724-1.588v-1.415l2.725 1.59M1551.355 2725.796l-2.725-1.59v-1.413l2.725 1.59M1543.18 2720.95l-2.726-1.59v-1.415l2.725 1.59M1535.004 2716.1l-2.725-1.588v-1.416l2.724 1.59M1526.83 2711.253l-2.726-1.59v-1.414l2.725 1.59M1518.653 2706.405l-2.725-1.59v-1.414l2.725 1.59M1412.37 2644.3l-2.724-1.59v-1.415l2.725 1.59M1404.196 2639.45l-2.725-1.588v-1.415l2.726 1.59M1396.02 2634.603l-2.725-1.59v-1.414l2.725 1.59M1387.845 2629.755l-2.725-1.59v-1.414l2.725 1.59M1379.67 2624.907l-2.725-1.59v-1.414l2.725 1.59M1371.494 2620.344l-2.725-1.59v-1.414l2.724 1.59M1363.32 2615.638l-2.726-1.59v-1.414l2.725 1.59M1355.243 2610.873l-2.725-1.59v-1.414l2.725 1.59M1347.068 2606.025l-2.725-1.59v-1.414l2.725 1.59M1338.892 2601.177l-2.725-1.59v-1.414l2.725 1.59M1330.717 2596.33l-2.725-1.59v-1.415l2.725 1.59M1322.54 2591.48l-2.724-1.588v-1.415l2.725 1.59M1072.66 2571.078l-2.724-1.59v-1.414l2.725 1.59M1064.486 2566.23l-2.725-1.59v-1.414l2.726 1.59M1056.31 2561.382l-2.724-1.59v-1.414l2.725 1.59M1048.135 2556.534l-2.725-1.59v-1.413l2.725 1.59M1039.96 2551.686l-2.725-1.59v-1.413l2.725 1.59M1031.784 2547.123l-2.725-1.59v-1.414l2.724 1.59M1023.61 2542.418l-2.726-1.59v-1.414l2.725 1.59M1015.533 2537.653l-2.725-1.59v-1.414l2.725 1.59M1007.358 2532.805l-2.725-1.59v-1.414l2.725 1.59M999.182 2527.957l-2.725-1.59v-1.414l2.725 1.59M991.007 2523.46l-2.725-1.59v-1.415l2.725 1.59M982.832 2518.758l-2.725-1.59v-1.414l2.725 1.59M1170.667 2628.744l-2.725-1.59v-1.414l2.725 1.59M1162.49 2623.896l-2.724-1.59v-1.414l2.725 1.59M1154.316 2619.048l-2.725-1.59v-1.414l2.726 1.59M1146.14 2614.2l-2.725-1.59v-1.414l2.725 1.59M1137.965 2609.352l-2.725-1.59v-1.414l2.725 1.59M1129.79 2604.79l-2.725-1.59v-1.415l2.725 1.59M1121.614 2600.083l-2.725-1.59v-1.414l2.724 1.59M1113.538 2595.318l-2.724-1.59v-1.414l2.724 1.59M1105.363 2590.47l-2.725-1.59v-1.414l2.725 1.59M1097.188 2585.622l-2.725-1.59v-1.414l2.725 1.59M1089.012 2580.774l-2.725-1.59v-1.414l2.725 1.59M1080.837 2575.926l-2.725-1.59v-1.414l2.725 1.59M974.555 2513.82l-2.725-1.59v-1.414l2.725 1.59M966.38 2508.972l-2.725-1.59v-1.414l2.725 1.59M958.204 2504.124l-2.725-1.59v-1.414l2.724 1.59M950.03 2499.277l-2.726-1.59v-1.414l2.725 1.59M941.853 2494.43l-2.725-1.59v-1.415l2.725 1.59M933.678 2489.865l-2.725-1.59v-1.414l2.725 1.59M925.502 2485.16l-2.724-1.59v-1.414l2.724 1.59M917.427 2480.395l-2.725-1.59v-1.414l2.725 1.59M909.25 2475.547l-2.724-1.59v-1.414l2.725 1.59M901.076 2470.7l-2.725-1.59v-1.415l2.726 1.59M892.9 2465.85l-2.724-1.588v-1.415l2.725 1.59M882 2458v1.414l2.725 1.59v-1.416M1211.444 2652.9l1.15-.733-.01-1.468-1.137.772M1218.345 2649.002l2.77-1.74-.007-1.56-2.756 1.78M1226.563 2644.302l2.77-1.74-.007-1.56-2.756 1.78M1235 2639.454l2.77-1.74-.008-1.56-2.756 1.78M1243.133 2634.606l2.77-1.74-.007-1.56-2.756 1.78M1251.337 2630.043l2.77-1.74-.007-1.56-2.756 1.78M1259.862 2625.047l2.77-1.74-.007-1.56-2.756 1.78M1268.387 2620.05l2.77-1.74-.006-1.558-2.756 1.78M1276.605 2615.35l2.77-1.74-.007-1.558-2.756 1.78M1285.04 2610.503l2.77-1.74-.006-1.56-2.756 1.78M1293.175 2605.655l2.77-1.74-.007-1.56-2.756 1.78M1301.38 2601.092l2.77-1.74-.008-1.56-2.756 1.78M1309.545 2596.553l2.77-1.74-.007-1.56-2.756 1.78"/><path fill="#F05B29" d="M1317.762 2591.853l2.77-1.74-.006-1.56-2.757 1.78M1326.198 2587.005l2.77-1.74-.007-1.56-2.755 1.78M1334.333 2582.157l2.77-1.74-.007-1.56-2.756 1.78M1342.536 2577.594l2.77-1.74-.007-1.56-2.757 1.78M1351.062 2572.598l2.77-1.74-.007-1.56-2.756 1.78M1359.587 2567.602l2.77-1.74-.007-1.56-2.756 1.78M1367.805 2562.902l2.77-1.74-.007-1.56-2.756 1.78M1376.24 2558.054l2.77-1.74-.007-1.56-2.755 1.78M1384.375 2553.206l2.77-1.74-.007-1.56-2.756 1.78M1392.58 2548.643l2.77-1.74-.008-1.56-2.756 1.78"/><path fill="#F05B29" d="M1392.58 2548.643l2.77-1.74-.008-1.56-2.756 1.78M1401.104 2543.647l2.77-1.74-.007-1.56-2.756 1.78M1409.322 2538.947l2.77-1.74-.007-1.56-2.757 1.78M1417.757 2534.1l2.77-1.74-.007-1.56-2.756 1.78M1425.892 2529.25l2.77-1.74-.007-1.558-2.756 1.78M1434.096 2524.688l2.77-1.74-.007-1.56-2.758 1.78M1442.62 2519.692l2.77-1.74-.006-1.56-2.756 1.78M1451.146 2514.696l2.77-1.74-.007-1.56-2.757 1.78M1459.364 2509.996l2.77-1.74-.007-1.56-2.756 1.78M1467.8 2505.148l2.77-1.74-.007-1.56-2.756 1.78M1475.934 2500.3l2.77-1.74-.007-1.56-2.756 1.78M1484.138 2495.737l2.77-1.74-.007-1.56-2.755 1.78M1493.18 2490.396l2.77-1.74-.007-1.56-2.756 1.78M1502.317 2485.286l2.77-1.74-.007-1.56-2.756 1.78M1511.878 2479.74l2.77-1.74-.007-1.56-2.755 1.78M1521.415 2474.154l2.77-1.74-.007-1.56-2.755 1.78"/><path d="M1326.19 2590.047c0 2.203-3.098 3.99-6.92 3.99-3.82 0-6.92-1.787-6.92-3.99 0-2.203 3.1-3.99 6.92-3.99 3.822 0 6.92 1.787 6.92 3.99" fill="#FEFEFE"/><path d="M1326.19 2590.047c0 2.203-3.098 3.99-6.92 3.99-3.82 0-6.92-1.787-6.92-3.99 0-2.203 3.1-3.99 6.92-3.99 3.822 0 6.92 1.787 6.92 3.99z" stroke="#F05B29" stroke-width="1.3"/><path fill="#F05B29" d="M1211.444 2652.9l-2.725-1.59v-1.414l2.724 1.59M1203.368 2648.136l-2.725-1.59v-1.414l2.725 1.59M1195.193 2643.288l-2.725-1.59v-1.414l2.725 1.59M1187.018 2638.44l-2.725-1.59v-1.414l2.725 1.59M1178.842 2633.592l-2.725-1.59v-1.414l2.725 1.59M1170.667 2628.744l-2.725-1.59v-1.414l2.725 1.59M1322.52 2590.047c0 1.035-1.456 1.873-3.25 1.873s-3.25-.838-3.25-1.873c0-1.035 1.456-1.873 3.25-1.873s3.25.838 3.25 1.873"/></g></g></svg>

